<svg xmlns="http://www.w3.org/2000/svg" style="isolation:isolate" viewBox="0 0 512 512" width="512pt" height="512pt"><path d="M74.452 111.93h363.096c20.394 0 36.952 16.558 36.952 36.952v214.256c0 20.394-16.558 36.952-36.952 36.952H74.452c-20.394 0-36.952-16.558-36.952-36.952V148.882c0-20.394 16.558-36.952 36.952-36.952Z" style="stroke:none;fill:#87ceeb;stroke-miterlimit:10"/><path d="M435.801 111.933c9.499-.32 18.027 2.582 25.548 8.671l-96.099 63.362L256 256l-109.25-72.034L50.645 120.6c7.365-6.043 15.895-8.92 25.554-8.667h359.602Z" fill="#52A9CC"/><path d="M256 333.583c-51.11-32.277-75.746-74.289-73.946-126.072 19.276-.537 30.21-10.21 32.73-29.094H256v155.166Zm0 0c51.11-32.277 75.746-74.289 73.946-126.072-19.276-.537-30.21-10.21-32.73-29.094H256v155.166Z" fill="#5865F2"/></svg>